<?xml version="1.0" standalone="no"?>
<!DOCTYPE svg PUBLIC "-//W3C//DTD SVG 20010904//EN"
 "http://www.w3.org/TR/2001/REC-SVG-20010904/DTD/svg10.dtd">
<svg version="1.0" xmlns="http://www.w3.org/2000/svg"
 width="64.000000pt" height="64.000000pt" viewBox="0 0 64.000000 64.000000"
 preserveAspectRatio="xMidYMid meet">

<g transform="translate(0.000000,67.000000) scale(0.100000,-0.100000)"
fill="#000000" stroke="none">
<path d="M0 645 l0 -25 115 0 115 0 0 -33 c0 -93 95 -106 121 -16 11 34 16 39
33 34 63 -18 72 -17 84 7 11 21 10 9 -3 -24 -2 -7 13 -25 35 -40 40 -27 90
-96 90 -122 0 -13 -28 -43 -33 -35 -1 2 -10 21 -20 41 -19 44 -55 57 -101 38
-126 -51 -207 -57 -285 -20 -40 18 -56 21 -69 14 -28 -18 -44 -83 -40 -166 4
-95 -14 -88 -20 7 -7 100 45 209 121 255 l32 20 -87 0 -88 0 0 -290 c0 -251 2
-290 15 -290 8 0 15 6 15 14 0 12 46 14 305 13 l305 -2 0 323 0 322 -143 0
c-131 0 -143 -2 -155 -20 -8 -13 -23 -20 -44 -20 -30 0 -31 0 -13 20 18 20 17
20 -133 20 l-152 0 0 -25z m607 -297 c-3 -7 -5 -2 -5 12 0 14 2 19 5 13 2 -7
2 -19 0 -25z m-355 -45 c10 -9 18 -23 18 -32 0 -12 -3 -12 -12 -3 -7 7 -24 12
-38 12 -14 0 -31 -5 -38 -12 -9 -9 -12 -8 -12 8 0 42 48 58 82 27z m166 5 c7
-7 12 -21 12 -32 0 -16 -3 -17 -12 -8 -15 15 -51 15 -66 0 -9 -9 -12 -8 -12 8
0 26 19 44 45 44 12 0 26 -5 33 -12z m-151 -164 c-3 -3 -12 -4 -19 -1 -8 3 -5
6 6 6 11 1 17 -2 13 -5z m68 -28 c17 -1 -12 -4 -62 -4 -51 -1 -93 1 -93 6 0 6
83 6 155 -2z m175 9 c0 -2 -10 -9 -22 -15 -22 -11 -22 -10 -4 4 21 17 26 19
26 11z m-343 -18 c3 -4 -5 -7 -20 -7 -14 0 -28 4 -31 8 -5 9 41 8 51 -1z"/>
</g>
</svg>
